<?xml version="1.0" standalone="no"?>
<!DOCTYPE svg PUBLIC "-//W3C//DTD SVG 20010904//EN"
 "http://www.w3.org/TR/2001/REC-SVG-20010904/DTD/svg10.dtd">
<svg version="1.0" xmlns="http://www.w3.org/2000/svg"
 width="920.000000pt" height="920.000000pt" viewBox="0 0 920.000000 920.000000"
 preserveAspectRatio="xMidYMid meet">
<metadata>
Created by potrace 1.14, written by Peter Selinger 2001-2017
</metadata>
<g transform="translate(0.000000,920.000000) scale(0.100000,-0.100000)"
fill="#000000" stroke="none">
<path d="M4340 8529 c-154 -13 -235 -21 -240 -24 -3 -2 -34 -6 -70 -10 -36 -4
-74 -9 -85 -11 -11 -2 -38 -6 -60 -10 -22 -3 -76 -13 -120 -22 -67 -14 -80
-20 -83 -38 -2 -11 20 -111 48 -222 27 -111 50 -203 50 -206 0 -5 -100 -36
-161 -51 l-25 -6 -53 203 c-29 112 -55 211 -58 221 -2 9 -13 17 -23 17 -22 0
-218 -67 -349 -120 -110 -43 -388 -178 -397 -191 -3 -5 35 -78 84 -161 131
-226 137 -237 126 -247 -20 -21 -129 -81 -145 -81 -11 0 -48 49 -105 138 -49
75 -106 161 -127 190 l-38 53 -37 -23 c-113 -69 -301 -206 -444 -325 -90 -74
-167 -139 -172 -144 -6 -5 58 -76 154 -172 90 -90 163 -168 163 -172 0 -9
-124 -137 -129 -133 -2 2 -78 77 -169 167 l-165 164 -42 -48 c-87 -98 -222
-262 -289 -352 -76 -101 -169 -241 -169 -254 0 -4 86 -59 190 -121 110 -65
190 -118 190 -127 0 -8 -18 -46 -41 -83 -35 -59 -43 -68 -62 -62 -11 4 -102
54 -201 112 -206 120 -178 122 -250 -17 -95 -184 -246 -569 -246 -627 0 -26 7
-29 277 -104 145 -41 153 -44 153 -68 0 -32 -39 -162 -48 -162 -4 1 -103 25
-220 54 -149 37 -215 50 -221 42 -23 -30 -75 -326 -106 -606 -2 -19 -7 -74
-10 -122 l-6 -88 235 0 236 0 0 -100 0 -100 -231 0 -230 0 6 -92 c3 -51 8
-109 10 -128 2 -19 7 -66 10 -105 15 -167 72 -475 90 -482 7 -2 94 17 192 42
231 61 255 67 261 60 12 -12 61 -170 54 -175 -4 -4 -101 -32 -217 -65 -116
-32 -213 -61 -217 -64 -28 -24 278 -761 316 -761 10 0 105 51 359 193 26 15
49 27 51 27 10 0 95 -164 89 -170 -5 -4 -93 -55 -198 -114 -104 -60 -196 -114
-204 -121 -23 -22 164 -293 372 -538 55 -64 104 -118 111 -120 7 -3 83 67 171
154 87 88 162 158 166 157 9 -4 77 -67 111 -104 l28 -30 -165 -164 -165 -165
58 -53 c178 -165 550 -442 594 -442 17 0 62 69 168 255 35 61 67 115 72 122
11 14 33 5 121 -45 l58 -34 -27 -46 c-76 -130 -194 -348 -194 -359 0 -17 65
-54 239 -134 137 -62 429 -173 491 -185 30 -6 29 -9 111 295 22 80 41 146 43
148 6 6 135 -26 161 -39 l23 -13 -28 -110 c-16 -60 -42 -161 -58 -223 -36
-132 -39 -125 88 -147 14 -2 52 -9 85 -14 88 -16 204 -32 255 -36 25 -2 63 -6
85 -9 22 -3 81 -8 130 -11 50 -3 105 -8 123 -11 l32 -5 0 236 0 235 100 0 100
0 0 -236 0 -236 38 6 c20 3 73 8 117 11 112 8 164 14 290 30 122 15 364 61
374 70 5 5 -11 69 -85 348 -17 60 -23 102 -17 108 16 16 157 48 169 38 6 -5
37 -103 69 -217 32 -114 62 -211 66 -216 10 -11 193 47 354 112 184 74 385
176 385 196 0 5 -47 93 -105 196 -58 103 -105 193 -105 202 0 12 133 98 152
98 6 0 118 -185 118 -196 0 -4 6 -15 14 -23 7 -9 28 -43 45 -76 18 -33 40 -71
51 -85 l18 -24 104 69 c89 59 294 208 308 224 3 3 25 22 50 42 25 20 54 45 66
55 12 11 49 43 83 73 l62 54 -163 163 c-90 90 -163 168 -163 174 0 13 116 131
127 128 4 -2 81 -76 171 -165 l164 -163 113 133 c123 142 254 316 331 435 l48
75 -22 17 c-12 9 -85 54 -162 100 -77 46 -155 94 -173 107 l-33 25 36 66 c20
37 42 73 49 80 11 11 47 -6 206 -97 107 -62 198 -110 204 -108 16 5 148 275
204 417 67 168 117 329 106 339 -5 5 -97 34 -204 65 -107 32 -200 61 -206 67
-13 11 -2 88 22 145 18 44 4 45 269 -30 105 -29 191 -53 192 -52 1 0 13 57 27
125 40 186 66 378 82 586 3 44 7 92 10 108 l4 27 -235 0 -235 0 0 100 0 100
232 2 232 3 -3 60 c-3 62 -3 72 -21 245 -12 119 -13 129 -41 298 -23 140 -41
197 -60 196 -8 -1 -108 -25 -222 -54 -115 -28 -210 -51 -211 -49 -5 6 -46 164
-46 176 0 5 99 36 220 68 185 49 220 61 220 76 0 25 -120 355 -171 471 -46
105 -126 267 -141 285 -11 14 -2 18 -248 -125 -80 -47 -148 -86 -151 -88 -9
-5 -86 125 -91 150 -2 16 19 33 102 83 167 100 270 167 270 176 0 48 -262 405
-444 605 l-29 32 -163 -162 c-90 -90 -168 -163 -174 -163 -10 0 -130 114 -130
124 0 3 73 80 161 170 l161 164 -33 31 c-188 176 -493 411 -606 470 l-33 16
-23 -37 c-13 -21 -63 -105 -112 -188 -48 -82 -91 -154 -95 -158 -7 -8 -170 78
-170 89 0 2 35 63 77 136 121 210 135 236 131 260 -2 16 -31 35 -123 81 -190
95 -554 237 -606 237 -20 0 -32 -32 -84 -235 -51 -198 -54 -207 -73 -201 -10
3 -37 10 -62 16 -25 6 -59 16 -76 21 l-32 10 54 212 c30 117 53 218 52 226 -4
18 -29 25 -203 55 -166 29 -316 48 -497 62 l-88 6 0 -236 0 -236 -100 0 -100
0 0 240 0 240 -52 -2 c-29 -2 -87 -6 -128 -9z m651 -1378 c322 -56 598 -155
899 -324 166 -93 359 -244 530 -416 213 -214 367 -430 499 -703 124 -255 187
-465 235 -788 21 -138 27 -439 13 -590 -86 -883 -628 -1669 -1425 -2070 -257
-129 -563 -227 -797 -254 -22 -3 -57 -8 -77 -11 -103 -17 -551 -10 -673 10
-565 92 -1087 361 -1475 761 -284 292 -470 595 -601 973 -55 160 -78 252 -115
461 -17 98 -28 549 -15 645 5 33 12 85 16 115 18 147 88 410 150 565 95 240
241 491 402 690 107 133 321 340 463 447 346 261 733 423 1178 493 133 21 171
23 412 20 205 -3 291 -9 381 -24z"/>
<path d="M4420 6982 c-52 -3 -311 -40 -316 -45 -2 -1 -4 -259 -6 -572 l-3
-570 -28 -70 c-55 -137 -158 -252 -285 -318 -98 -51 -135 -60 -256 -62 -116
-3 -102 -5 -436 84 -63 17 -236 63 -385 102 -148 40 -276 74 -283 76 -28 11
-141 -288 -187 -494 -32 -143 -59 -343 -48 -353 4 -5 134 -41 288 -80 489
-126 788 -210 841 -235 62 -30 132 -103 170 -176 26 -50 28 -62 29 -174 0
-117 -1 -121 -33 -180 -18 -33 -184 -258 -368 -499 l-336 -440 101 -98 c108
-104 247 -219 346 -285 92 -62 237 -143 255 -143 15 1 43 35 274 335 429 556
411 534 482 581 99 66 140 76 321 79 172 3 216 -2 291 -37 43 -20 143 -111
201 -182 34 -42 190 -241 235 -300 222 -290 379 -486 389 -486 36 0 318 181
453 291 98 80 234 214 234 231 0 8 -134 192 -297 409 -337 447 -384 514 -407
582 -31 91 -14 232 39 336 27 54 105 130 161 159 35 18 132 46 489 143 61 16
229 63 375 103 l265 73 -1 64 c-4 196 -162 754 -220 776 -16 6 -198 -37 -624
-147 -361 -93 -443 -109 -535 -106 -248 7 -524 220 -592 456 -13 46 -17 142
-20 595 -3 297 -6 541 -7 543 -2 1 -23 5 -47 8 -24 3 -55 7 -69 10 -60 10
-372 21 -450 16z m279 -1877 c132 -31 269 -132 336 -246 163 -279 59 -620
-232 -761 -84 -40 -92 -42 -199 -46 -94 -4 -124 -1 -181 16 -231 71 -397 309
-380 547 15 199 125 361 314 459 88 45 227 58 342 31z"/>
<path d="M4473 4906 c-112 -36 -196 -128 -226 -247 -19 -72 -12 -142 22 -214
86 -183 295 -258 466 -167 160 85 227 282 152 446 -28 62 -104 138 -166 168
-56 27 -185 35 -248 14z"/>
<path d="M5196 6895 c-8 -21 -8 -93 0 -133 6 -28 14 -33 98 -62 357 -127 639
-309 906 -586 78 -81 248 -290 285 -352 3 -4 139 39 147 47 21 19 -172 283
-320 437 -263 273 -663 523 -1015 633 -34 11 -69 22 -78 26 -10 4 -19 0 -23
-10z"/>
<path d="M3810 6865 c-412 -140 -782 -391 -1070 -726 -67 -77 -94 -113 -178
-238 l-64 -96 28 -11 c16 -7 53 -19 82 -28 l53 -15 32 46 c194 281 383 472
641 645 129 86 344 195 494 249 l93 34 -2 77 c-1 42 -5 81 -8 86 -3 5 -46 -5
-101 -23z"/>
<path d="M5206 6511 c-3 -5 -4 -141 -2 -302 5 -317 9 -346 61 -436 34 -56 141
-165 187 -189 53 -27 118 -41 189 -38 55 1 306 62 594 142 17 5 31 16 33 24 7
38 -217 295 -372 427 -168 143 -434 299 -614 360 -71 24 -69 24 -76 12z"/>
<path d="M3790 6466 c-305 -135 -569 -322 -755 -536 -50 -58 -134 -170 -150
-200 -14 -26 -13 -29 3 -34 46 -14 321 -88 432 -117 174 -44 264 -44 354 0 80
39 162 120 206 202 l32 61 3 313 c4 316 2 356 -19 354 -6 0 -54 -20 -106 -43z"/>
<path d="M6915 4553 c-27 -8 -60 -17 -72 -20 -24 -6 -27 -19 -38 -163 -23
-316 -159 -704 -354 -1014 -34 -53 -61 -99 -61 -102 0 -14 95 -124 104 -121
15 4 135 184 197 294 128 231 229 537 265 798 3 28 8 57 9 66 2 9 6 52 10 95
4 43 8 98 10 121 5 55 -8 64 -70 46z"/>
<path d="M2175 4550 c-8 -12 4 -174 21 -295 39 -283 146 -604 275 -831 72
-125 169 -274 180 -274 4 0 31 27 59 61 51 61 51 61 34 88 -87 132 -162 272
-227 421 -51 119 -110 321 -141 485 -14 76 -18 108 -34 255 l-7 65 -78 16
c-42 9 -79 13 -82 9z"/>
<path d="M2540 4428 c0 -24 4 -70 10 -103 5 -33 12 -78 16 -100 12 -79 63
-263 103 -368 60 -160 179 -385 208 -394 24 -8 428 520 444 581 21 77 -17 180
-81 222 -37 24 -165 63 -495 150 -93 24 -178 47 -187 50 -15 5 -18 -1 -18 -38z"/>
<path d="M6565 4457 c-105 -24 -604 -170 -635 -185 -67 -33 -105 -121 -98
-228 4 -68 -2 -60 279 -419 126 -162 152 -190 168 -181 14 9 86 136 141 251
53 108 109 262 140 384 36 142 69 375 53 383 -4 3 -26 1 -48 -5z"/>
<path d="M4427 3249 c-73 -11 -105 -36 -200 -154 -119 -148 -327 -424 -327
-434 0 -13 215 -73 325 -91 152 -25 401 -33 577 -18 120 11 384 69 431 95 11
7 -358 484 -412 531 -58 52 -120 72 -237 75 -60 2 -130 0 -157 -4z"/>
<path d="M3734 2462 c-42 -52 -64 -85 -64 -99 0 -10 74 -38 210 -77 123 -36
330 -78 445 -91 60 -7 475 -7 531 0 156 19 502 104 577 142 31 16 29 24 -29
104 l-34 47 -105 -34 c-235 -74 -447 -108 -680 -108 -260 1 -502 41 -738 123
l-84 29 -29 -36z"/>
</g>
</svg>
